PathFileType	4	(X/Y/Z)	 s08c0101.trc
DataRate	CameraRate	NumFrames	NumMarkers	Units	OrigDataRate	OrigDataStartFrame	OrigNumFrames
200	200	4	50	mm	200	1751	2000
Frame#	Time	racr			lacr			c7			jug			rlel			rdr			llel			ldr			s2			lic			ric			lasi			rasi			rpsi			lpsi			rgt			lgt			rth1			rth2			rth3			rth4			rlfc			rmfc			rsh1			rsh2			rsh3			rsh4			rlmal			rmmal			rcal			rtoe			rmt5			lth1			lth2			lth4			lth3			llfc			lmfc			llmal			lmmal			lcal			lmt5			lsh1			lsh2			lsh3			lsh4			ltoe			SBIKE			LBIKE			RBIKE			
		X1	Y1	Z1	X2	Y2	Z2	X3	Y3	Z3	X4	Y4	Z4	X5	Y5	Z5	X6	Y6	Z6	X7	Y7	Z7	X8	Y8	Z8	X9	Y9	Z9	X10	Y10	Z10	X11	Y11	Z11	X12	Y12	Z12	X13	Y13	Z13	X14	Y14	Z14	X15	Y15	Z15	X16	Y16	Z16	X17	Y17	Z17	X18	Y18	Z18	X19	Y19	Z19	X20	Y20	Z20	X21	Y21	Z21	X22	Y22	Z22	X23	Y23	Z23	X24	Y24	Z24	X25	Y25	Z25	X26	Y26	Z26	X27	Y27	Z27	X28	Y28	Z28	X29	Y29	Z29	X30	Y30	Z30	X31	Y31	Z31	X32	Y32	Z32	X33	Y33	Z33	X34	Y34	Z34	X35	Y35	Z35	X36	Y36	Z36	X37	Y37	Z37	X38	Y38	Z38	X39	Y39	Z39	X40	Y40	Z40	X41	Y41	Z41	X42	Y42	Z42	X43	Y43	Z43	X44	Y44	Z44	X45	Y45	Z45	X46	Y46	Z46	X47	Y47	Z47	X48	Y48	Z48	X49	Y49	Z49	X50	Y50	Z50	
1751	8.7550	570.567208	1368.015537	-55.134368	583.346863	1378.226642	-371.405888	547.474035	1437.454393	-214.494863	504.705651	1281.599998	-212.341890	594.089004	1112.598872	45.654483	790.725819	893.844874	-34.020214	600.981257	1106.341122	-470.278503	804.279029	905.505202	-402.095305	-16.353717	1220.738023	-221.650505	161.076001	1219.874022	-384.422467	145.803976	1214.684441	-58.298982	174.072977	1171.768143	-330.305154	167.366442	1163.727231	-93.779145	16.783499	1262.500018	-168.407670	19.031322	1265.817247	-263.258048	69.196503	1107.420826	-29.676580	96.244300	1106.370914	-404.685986	197.130012	990.145225	-24.610156	276.183568	949.655645	-26.025663	323.058986	876.094718	-32.925133	300.055038	976.004594	-37.600344	393.312215	788.732886	-48.769853	379.861449	784.562668	-166.329230	289.575377	709.146526	-22.133726	253.159515	628.514061	-42.422180	183.699969	578.968551	-49.761087	279.868490	613.470883	-68.239229	101.780990	496.459397	-59.168375	131.768848	499.547889	-144.329210	30.773167	525.414178	-109.287528	233.129029	312.861781	-105.308527	147.567124	349.581639	-35.219862	185.059804	998.781016	-409.417441	256.827268	949.751921	-403.135375	283.331662	972.771536	-392.076028	295.250109	869.423285	-401.217524	363.699997	762.155431	-377.159012	358.744557	732.515114	-274.813394	326.552528	343.240990	-398.419618	359.482985	374.235198	-324.705864	259.255261	311.826372	-363.751954	473.488369	274.490068	-412.804353	353.387177	633.112548	-407.397162	366.823085	549.355436	-393.744748	340.252013	465.456646	-399.070565	386.087549	550.278180	-358.934824	548.382351	312.033333	-340.120446	-135.488100	947.314534	-223.129786	26.428337	84.148176	-427.745984	18.343014	80.572233	-30.277129	
1752	8.7600	569.189370	1367.880246	-53.467422	583.231835	1378.243520	-370.201751	546.867831	1437.228158	-213.174443	504.272457	1281.371992	-210.990182	593.660050	1112.384309	46.841573	790.705738	893.956036	-33.895824	602.131064	1106.948700	-469.830962	804.619632	904.838186	-401.956964	-16.282808	1219.591511	-223.280210	148.493517	1214.058151	-371.098759	144.641110	1214.185777	-59.104352	174.662951	1169.524174	-331.542073	166.510730	1163.529444	-94.712570	16.305200	1261.669289	-170.053169	19.255442	1264.752536	-265.060417	68.875044	1107.921672	-29.785173	95.562620	1103.290586	-405.378606	198.502508	992.959522	-25.135924	278.659676	954.701410	-26.467631	327.385538	882.370236	-33.145234	301.720941	981.489214	-38.377694	399.612238	796.588322	-49.340569	386.130451	791.825166	-166.656181	295.625808	717.462904	-22.588468	258.348351	637.264862	-42.726702	188.440861	588.400552	-49.971402	284.907954	621.950143	-68.528220	105.702075	506.657061	-59.267507	135.722361	509.574441	-144.355349	34.511832	535.806877	-109.344268	236.274231	322.749321	-105.264473	150.853321	359.751090	-35.228411	182.261954	993.657320	-410.467560	252.930823	942.880698	-404.073723	279.924698	965.270263	-393.317219	289.216607	861.750427	-401.789151	355.936734	753.596992	-377.848158	351.924127	723.650000	-276.689434	323.872555	334.912224	-398.632247	357.225964	365.730432	-325.195690	257.181789	304.718593	-363.792044	470.836694	263.955617	-412.854702	346.529583	624.576378	-408.273723	361.279418	541.085234	-394.437037	336.127762	456.798413	-399.681155	380.488969	542.270138	-359.409822	546.311493	300.337070	-340.100241	-135.537886	947.287348	-223.227631	26.428308	84.116346	-427.738757	18.337594	80.550404	-30.275198	
1753	8.7650	567.975549	1367.714093	-51.600949	583.065533	1378.268564	-369.114341	546.237566	1437.012946	-211.812804	503.892920	1281.128940	-209.505652	593.292639	1112.228051	47.994692	790.698080	894.057649	-33.800888	603.388685	1107.574199	-469.431060	805.025688	904.234579	-401.950439	-16.094960	1218.570751	-225.008591	149.461817	1212.557752	-371.789190	143.482274	1213.688172	-59.890749	175.201960	1167.071204	-332.897032	165.730292	1163.354406	-95.536969	16.453297	1260.585272	-170.100335	19.426457	1263.445232	-266.595535	68.385548	1108.488131	-29.959687	94.890663	1100.229193	-406.081721	199.889737	996.192276	-25.325289	281.057732	959.987889	-26.897311	331.456653	888.858347	-33.588400	303.386034	987.261610	-38.960154	405.663408	804.518544	-49.914097	392.778817	799.222944	-167.527190	301.753710	725.652150	-23.028239	263.639156	645.868779	-43.097721	193.254582	597.704697	-50.231126	290.111023	630.257999	-68.836369	109.708898	516.602701	-59.399654	139.793320	519.406838	-144.476495	38.313524	545.842244	-109.299759	240.134901	332.808243	-105.277652	154.796871	370.360258	-34.675231	179.453585	988.699993	-411.538042	248.886690	936.324396	-405.144118	276.441922	958.047841	-394.435048	283.194415	854.440466	-402.614589	347.907391	745.531126	-378.886182	342.184914	715.604305	-278.407096	320.779966	326.875802	-398.610306	354.478349	357.585960	-325.397357	254.681139	298.045260	-363.667564	467.512439	253.632668	-412.873442	339.366544	616.292877	-409.116189	355.412511	533.084803	-395.192558	331.535781	448.350083	-400.200297	374.440490	534.350945	-359.784671	543.788223	288.681118	-340.224296	-135.591044	947.270976	-223.418027	26.412951	84.109477	-427.740003	18.337151	80.560262	-30.287297	
1754	8.7700	566.640236	1367.460707	-49.886737	582.899381	1378.340417	-367.950720	545.717300	1436.858430	-210.489365	503.614907	1280.911805	-208.226280	593.282025	1112.128402	49.434787	790.733407	894.152022	-33.688352	604.637915	1108.252798	-469.067618	805.389899	903.710678	-401.899369	-15.852028	1217.474079	-226.777191	150.520472	1211.055429	-372.402838	142.313632	1213.022495	-60.629196	175.704356	1164.497273	-334.290595	164.929095	1163.129477	-96.349576	15.194439	1259.894287	-171.831767	19.578910	1262.144179	-268.306331	67.792771	1109.315498	-30.197624	94.051047	1097.405164	-406.844678	201.209248	999.335035	-25.902743	283.303554	965.282687	-27.344395	335.413292	895.424792	-33.742953	304.882879	993.067190	-39.713668	411.453094	812.760582	-50.367797	396.729879	802.828050	-158.589864	307.768736	733.907288	-23.532907	269.067315	654.365797	-43.550022	198.067070	606.950593	-50.419947	295.001769	638.256236	-69.386079	113.775106	526.227639	-59.609859	144.014023	529.106960	-144.626789	42.200291	555.484112	-109.279665	244.581746	342.956300	-105.325134	159.345709	380.216702	-34.727033	176.623219	984.109814	-412.664449	244.774385	930.148047	-406.252734	272.876163	951.207862	-395.487552	277.095493	847.236051	-403.108394	339.629638	737.747144	-380.076934	332.636656	708.291576	-278.557518	317.173892	319.322068	-398.619488	351.481371	349.940793	-325.726672	251.679673	291.811475	-363.519749	463.639188	243.605512	-412.899216	331.921248	608.297142	-410.177357	349.273052	525.405859	-396.179969	326.546927	440.344219	-400.810631	368.267227	527.478655	-361.158503	540.643857	277.333688	-340.354017	-135.644405	947.262769	-223.521569	26.418656	84.081901	-427.755547	18.320759	80.571714	-30.282629	
